<svg width="58" height="48" viewBox="0 0 58 48" fill="none" xmlns="http://www.w3.org/2000/svg">
<g clip-path="url(#clip0_78_2742)">
<path d="M47.242 28.8679H10.7533V32.6465H47.242V28.8679Z" fill="#5050C2"/>
<path d="M23.1249 24.6076H10.7533V20.8291H20.686L23.1249 24.6076Z" fill="#5050C2"/>
<path d="M47.242 20.8291V24.6076H34.8704L37.3092 20.8291H47.242Z" fill="#5050C2"/>
<path d="M54.5117 7.98218H46.7468L43.0745 13.65H51.7085V37.4358H33.8052C33.1698 37.4358 32.5624 37.6436 32.0578 38.0498L28.6472 40.7893L25.1245 38.0309C24.6293 37.6436 24.0219 37.4358 23.4145 37.4358H6.27745V13.65H14.9207L11.2485 7.98218H3.47422C1.93244 7.98218 0.67099 9.24799 0.67099 10.8161V40.2697C0.67099 41.8284 1.93244 43.1036 3.47422 43.1036H22.4521L26.9559 46.6271C27.9558 47.4111 29.4321 47.3922 30.4133 46.6082L34.777 43.1036H54.5117C56.0628 43.1036 57.3149 41.8284 57.3149 40.2697V10.8161C57.3149 9.24799 56.0628 7.98218 54.5117 7.98218Z" fill="#5050C2"/>
<path d="M43.6632 5.84728L42.897 7.03751L38.0007 14.5946L33.964 20.8291L32.1232 23.6725C31.8896 24.0409 31.5906 24.3526 31.2542 24.6077C30.6095 25.1083 29.8246 25.3823 28.993 25.3823C28.1613 25.3823 27.3858 25.1083 26.741 24.6077C26.4046 24.3526 26.1056 24.0409 25.872 23.6725L24.0312 20.8291L19.9946 14.5946L15.0983 7.03751L14.3321 5.84728C13.2014 4.0997 13.6873 1.76646 15.416 0.623457C16.0514 0.207819 16.7615 0 17.4623 0C18.6771 0 19.8638 0.604565 20.5833 1.70978L24.0406 7.0564L28.993 14.7079L33.9173 7.09419L37.4026 1.70978C38.1221 0.604565 39.3088 0 40.5236 0C41.2337 0 41.9439 0.207819 42.5793 0.623457C44.3079 1.75702 44.7938 4.0997 43.6632 5.84728Z" fill="#5050C2"/>
</g>
<defs>
<clipPath id="clip0_78_2742">
<rect width="56.6439" height="47.2033" fill="white" transform="translate(0.67099)"/>
</clipPath>
</defs>
</svg>
