<svg width="26" height="29" viewBox="0 0 26 29" fill="none" xmlns="http://www.w3.org/2000/svg">
<path d="M11.7169 16.8503C11.2088 16.8505 10.7218 17.0525 10.3624 17.4119C10.0031 17.7712 9.80101 18.2582 9.8009 18.7664V26.3503H16.4679V18.7664C16.4678 18.2583 16.2655 17.7712 15.9064 17.4119C15.547 17.0525 15.0592 16.8504 14.5509 16.8503H11.7169ZM0.883911 12.0476C0.879704 11.5151 0.988791 10.9877 1.20422 10.5007C1.41904 10.0153 1.73483 9.58076 2.13 9.22632L10.63 1.77417L10.6339 1.77124C11.3214 1.15633 12.2116 0.816203 13.1339 0.816162C14.0563 0.816162 14.9464 1.1563 15.6339 1.77124L15.6378 1.77417L24.1378 9.22632C24.5315 9.57936 24.8459 10.0117 25.0607 10.4949C25.2761 10.9796 25.3863 11.5045 25.3839 12.0349V24.4333C25.3839 25.4279 24.9885 26.3815 24.2853 27.0847C23.582 27.788 22.6285 28.1833 21.6339 28.1833H4.63391C3.6394 28.1833 2.68577 27.7879 1.98254 27.0847C1.27936 26.3815 0.883911 25.4279 0.883911 24.4333V12.0476Z" stroke="white"/>
</svg>
