<svg width="30" height="31" viewBox="0 0 30 31" fill="none" xmlns="http://www.w3.org/2000/svg">
<path d="M15 1.33496C18.7568 1.33497 22.3602 2.82695 25.0166 5.4834C27.673 8.13985 29.165 11.7432 29.165 15.5C29.165 19.2568 27.673 22.8602 25.0166 25.5166C22.3602 28.173 18.7568 29.665 15 29.665C11.2432 29.665 7.63985 28.173 4.9834 25.5166C2.32695 22.8602 0.834971 19.2568 0.834961 15.5C0.834961 11.7432 2.32695 8.13985 4.9834 5.4834C7.63985 2.82695 11.2432 1.33496 15 1.33496ZM15 7.66699C10.6808 7.66699 7.1675 11.18 7.16699 15.499C7.16422 16.5287 7.36627 17.5489 7.76074 18.5C8.15467 19.4497 8.73366 20.3113 9.46289 21.0361V21.0371C10.1882 21.767 11.0514 22.3463 12.002 22.7402C12.9522 23.134 13.9714 23.3338 15 23.3311C19.3196 23.331 22.8319 19.8173 22.832 15.498C22.832 11.1784 19.3193 7.66701 15 7.66699ZM18.5869 15.4902C18.5853 15.0127 18.4891 14.5401 18.3047 14.0996C18.1202 13.6591 17.8509 13.2591 17.5117 12.9229C17.1726 12.5866 16.7702 12.3203 16.3281 12.1396C15.9414 11.9817 15.5307 11.8913 15.1143 11.873L14.9365 11.8701C14.459 11.8716 13.9865 11.9671 13.5459 12.1514C13.1052 12.3357 12.7046 12.6052 12.3682 12.9443C12.0317 13.2835 11.7658 13.6858 11.585 14.1279C11.4042 14.5699 11.3122 15.0431 11.3145 15.5205C11.3166 16.0559 11.4381 16.5848 11.6699 17.0674C11.7855 17.308 11.9272 17.5341 12.0918 17.7422C11.4525 18.0475 10.8667 18.4537 10.3555 18.9453C9.61457 17.9551 9.2107 16.7473 9.21289 15.501C9.21493 13.9663 9.82574 12.4942 10.9111 11.4092C11.9964 10.3245 13.4676 9.71458 15.002 9.71289C16.5358 9.71508 18.0063 10.3254 19.0908 11.4102C20.1753 12.495 20.7855 13.966 20.7871 15.5L20.7803 15.7715C20.7239 16.9471 20.3082 18.0749 19.5938 19.0049C19.068 18.4842 18.4606 18.0613 17.8008 17.7451C18.2893 17.1291 18.5869 16.3496 18.5869 15.4912V15.4902Z" stroke="white"/>
</svg>
