<svg width="30" height="31" viewBox="0 0 30 31" fill="none" xmlns="http://www.w3.org/2000/svg">
<path d="M12.7992 1.33331H17.1967L17.3461 1.34601C17.4932 1.37022 17.6333 1.42872 17.7552 1.51691C17.9181 1.63469 18.0405 1.80016 18.1049 1.99054V1.98956L19.0287 4.76105L19.2103 5.30792L22.3373 3.74445L22.3363 3.74347C22.517 3.65487 22.7217 3.6257 22.9203 3.65851C23.1196 3.69149 23.3039 3.78609 23.4467 3.92902V3.92999L26.5707 7.05402C26.7105 7.19577 26.8035 7.3771 26.8363 7.57355C26.8692 7.77086 26.8395 7.97358 26.7523 8.15363L25.4506 10.7591L25.1927 11.2747L25.7396 11.4573L28.5111 12.3812C28.7023 12.4462 28.8681 12.5695 28.9857 12.7337C29.1037 12.8985 29.1669 13.0965 29.1664 13.2991V17.6995C29.1642 17.8992 29.1007 18.0933 28.9838 18.2552C28.8659 18.4181 28.6996 18.5405 28.5092 18.6048L25.7396 19.5286L25.1927 19.7103L25.4506 20.2259L26.7552 22.8372C26.8437 23.0178 26.874 23.2217 26.8412 23.4202C26.8082 23.6195 26.7136 23.8038 26.5707 23.9466L23.4496 27.0677C23.3083 27.2065 23.1273 27.2985 22.932 27.3314C22.7394 27.3637 22.5416 27.3365 22.3646 27.2542L19.7552 25.9505L19.2396 25.6927L19.058 26.2396L18.1342 29.0091C18.0694 29.2009 17.9462 29.3677 17.7816 29.4857C17.6169 29.6036 17.4188 29.6668 17.2162 29.6663H12.8138C12.6112 29.6668 12.4132 29.6036 12.2484 29.4857C12.0837 29.3677 11.9597 29.2011 11.8949 29.0091L10.972 26.2396L10.7894 25.6927L10.2738 25.9505L7.66541 27.2542C7.48427 27.3436 7.27974 27.374 7.08044 27.3411C6.88111 27.3082 6.6969 27.2135 6.55408 27.0706L3.43005 23.9466C3.28979 23.8047 3.19626 23.6229 3.16345 23.4261C3.1388 23.2781 3.14929 23.1269 3.19275 22.9847L3.24744 22.846L4.80798 19.7249L4.26111 19.5433L1.48962 18.6194H1.4906C1.29866 18.5546 1.13197 18.4307 1.01404 18.2659C0.896259 18.1013 0.832894 17.9039 0.833374 17.7015V13.304C0.834867 13.103 0.89916 12.9073 1.01697 12.7444C1.13436 12.5822 1.29908 12.4603 1.48865 12.3958L4.26111 11.472L4.80798 11.2894L4.55017 10.7737L3.24451 8.16339C3.15592 7.98279 3.12586 7.77889 3.15857 7.58038C3.19149 7.38113 3.28628 7.19681 3.42908 7.05402H3.43005L6.5531 3.92902C6.69492 3.78897 6.877 3.69621 7.07361 3.66339C7.27073 3.63054 7.47376 3.65946 7.65369 3.7464L10.2592 5.05011L10.7748 5.30792L10.9574 4.76105L11.8812 1.98859L11.8802 1.98761C11.9453 1.79673 12.0697 1.63138 12.2338 1.51398C12.3985 1.39606 12.5966 1.33279 12.7992 1.33331ZM15.0004 9.13312C13.7412 9.13312 12.5102 9.50687 11.4633 10.2064C10.4163 10.9059 9.59943 11.9004 9.11755 13.0638C8.63579 14.227 8.50961 15.5076 8.75525 16.7425C9.00095 17.9774 9.60809 19.1119 10.4984 20.0023C11.3888 20.8925 12.5233 21.4988 13.7582 21.7444C14.9931 21.99 16.2736 21.864 17.4369 21.3821C18.6 20.9003 19.5938 20.0841 20.2933 19.0374C20.9929 17.9905 21.3665 16.7594 21.3666 15.5003C21.3666 13.8119 20.6961 12.1923 19.5023 10.9984C18.3084 9.80445 16.6888 9.1332 15.0004 9.13312Z" stroke="white"/>
</svg>
